<svg width="596" height="526" viewBox="0 0 596 526" fill="none" xmlns="http://www.w3.org/2000/svg">
<path fill-rule="evenodd" clip-rule="evenodd" d="M296.767 435.228L236.563 329.491L211.501 373.56L296.767 523.496V435.228Z" fill="#08FAB5" stroke="black"/>
<path fill-rule="evenodd" clip-rule="evenodd" d="M235.71 328.065L177.201 224.57H126.893L210.755 372.182L235.71 328.065Z" fill="#08FAB5" stroke="black"/>
<path fill-rule="evenodd" clip-rule="evenodd" d="M116.304 118.557L175.824 223.238L126.022 223.26L42.1771 74.9092L116.304 118.557Z" fill="#08FAB5" stroke="black"/>
<path fill-rule="evenodd" clip-rule="evenodd" d="M43.019 73.5548L117.106 116.68H235.544L211.46 73.5254L43.019 73.5548Z" fill="#08FAB5" stroke="black"/>
<path fill-rule="evenodd" clip-rule="evenodd" d="M213.1 73.5197L237.875 116.409L356.58 116.741L381.646 73.5088L213.1 73.5197Z" fill="#08FAB5" stroke="black"/>
<path fill-rule="evenodd" clip-rule="evenodd" d="M477.724 116.854L358.701 116.802L383.404 73.8029L550.969 73.8768L477.724 116.854Z" fill="#08FAB5" stroke="black"/>
<path fill-rule="evenodd" clip-rule="evenodd" d="M477.056 118.915L418.023 223.109L468.886 223.131L553.143 74.3384L477.056 118.915Z" fill="#08FAB5" stroke="black"/>
<path fill-rule="evenodd" clip-rule="evenodd" d="M358.646 327.197L384.221 372.152L468.192 224.521L416.976 224.579L358.646 327.197Z" fill="#08FAB5" stroke="black"/>
<path fill-rule="evenodd" clip-rule="evenodd" d="M298.138 434.656L357.793 328.533L383.376 373.808L298.138 523.876V434.656Z" fill="#08FAB5" stroke="black"/>
<path fill-rule="evenodd" clip-rule="evenodd" d="M297.148 352.965L260.326 288.171L237.943 327.796L297.148 432.004V352.965Z" fill="#08FAB5" stroke="black"/>
<path fill-rule="evenodd" clip-rule="evenodd" d="M259.613 286.78L224.371 224.818H179.6L237.048 326.301L259.613 286.78Z" fill="#08FAB5" stroke="black"/>
<path fill-rule="evenodd" clip-rule="evenodd" d="M223.536 223.354L187.285 159.675L120.085 120.508L178.781 223.779L223.536 223.354Z" fill="#08FAB5" stroke="black"/>
<path fill-rule="evenodd" clip-rule="evenodd" d="M121.863 119.193L187.937 158.358L260.042 158.355L237.348 118.746L121.863 119.193Z" fill="#08FAB5" stroke="black"/>
<path fill-rule="evenodd" clip-rule="evenodd" d="M261.857 158.313L333.559 158.29L356.01 118.829H239.269L261.857 158.313Z" fill="#08FAB5" stroke="black"/>
<path fill-rule="evenodd" clip-rule="evenodd" d="M335.294 158.3L407.736 158.226L474.496 118.923H357.761L335.294 158.3Z" fill="#08FAB5" stroke="black"/>
<path fill-rule="evenodd" clip-rule="evenodd" d="M408.358 159.547L372.034 223.421L416.476 223.315L475.012 120.916L408.358 159.547Z" fill="#08FAB5" stroke="black"/>
<path fill-rule="evenodd" clip-rule="evenodd" d="M336.052 286.778L358.165 325.872L415.649 224.808L371.244 224.759L336.052 286.778Z" fill="#08FAB5" stroke="black"/>
<path fill-rule="evenodd" clip-rule="evenodd" d="M298.893 352.826L335.156 288.19L357.382 327.328L298.893 430.179V352.826Z" fill="#08FAB5" stroke="black"/>
<path fill-rule="evenodd" clip-rule="evenodd" d="M296.258 272.716L282.337 248.309L260.496 286.972L296.258 349.653V272.716Z" fill="#08FAB5" stroke="black"/>
<path fill-rule="evenodd" clip-rule="evenodd" d="M259.547 285.675L281.633 246.705L269.336 225.016L225.274 224.996L259.547 285.675Z" fill="#08FAB5" stroke="black"/>
<path fill-rule="evenodd" clip-rule="evenodd" d="M254.956 199.798L268.406 223.578L224.465 223.598L189.037 161.206L254.956 199.798Z" fill="#08FAB5" stroke="black"/>
<path fill-rule="evenodd" clip-rule="evenodd" d="M255.476 198.549L282.068 198.538L260.192 160.039L189.751 160.07L255.476 198.549Z" fill="#08FAB5" stroke="black"/>
<path fill-rule="evenodd" clip-rule="evenodd" d="M261.646 160.062L283.582 198.505H309.702L331.733 160.062H261.646Z" fill="#08FAB5" stroke="black"/>
<path fill-rule="evenodd" clip-rule="evenodd" d="M338.542 198.607L311.435 198.595L333.423 160.068L404.244 160.099L338.542 198.607Z" fill="#08FAB5" stroke="black"/>
<path fill-rule="evenodd" clip-rule="evenodd" d="M338.85 199.978L325.556 223.591L369.518 223.61L404.907 161.243L338.85 199.978Z" fill="#08FAB5" stroke="black"/>
<path fill-rule="evenodd" clip-rule="evenodd" d="M334.38 285.625L312.392 246.733L324.681 224.989L368.779 224.969L334.38 285.625Z" fill="#08FAB5" stroke="black"/>
<path fill-rule="evenodd" clip-rule="evenodd" d="M298.025 272.637L311.561 248.279L333.297 287.01L298.025 349.402V272.637Z" fill="#08FAB5" stroke="black"/>
</svg>
