<svg width="512" height="512" viewBox="0 0 512 512" fill="none" xmlns="http://www.w3.org/2000/svg">
<rect width="512" height="512" rx="64" fill="#000000"/>
<svg x="30" y="20" width="452" height="472" viewBox="170 270 740 640">
<path fill-rule="evenodd" clip-rule="evenodd" d="M538.466 769.578L458.848 629.743L425.704 688.023L538.466 886.309V769.578Z" fill="#08FAB5"/>
<path fill-rule="evenodd" clip-rule="evenodd" d="M457.723 627.858L380.347 490.989H313.815L424.721 686.202L457.723 627.858Z" fill="#08FAB5"/>
<path fill-rule="evenodd" clip-rule="evenodd" d="M299.81 350.788L378.523 489.227L312.661 489.256L201.779 293.065L299.81 350.788Z" fill="#08FAB5"/>
<path fill-rule="evenodd" clip-rule="evenodd" d="M202.892 291.274L300.869 348.307H457.501L425.65 291.235L202.892 291.274Z" fill="#08FAB5"/>
<path fill-rule="evenodd" clip-rule="evenodd" d="M427.819 291.227L460.585 347.947L617.569 348.387L650.718 291.213L427.819 291.227Z" fill="#08FAB5"/>
<path fill-rule="evenodd" clip-rule="evenodd" d="M777.78 348.537L620.376 348.468L653.044 291.602L874.644 291.7L777.78 348.537Z" fill="#08FAB5"/>
<path fill-rule="evenodd" clip-rule="evenodd" d="M776.895 351.262L698.825 489.055L766.09 489.084L877.518 292.31L776.895 351.262Z" fill="#08FAB5"/>
<path fill-rule="evenodd" clip-rule="evenodd" d="M620.297 626.708L654.12 686.16L765.169 490.923L697.437 490.999L620.297 626.708Z" fill="#08FAB5"/>
<path fill-rule="evenodd" clip-rule="evenodd" d="M540.282 768.82L619.176 628.476L653.008 688.35L540.282 886.812V768.82Z" fill="#08FAB5"/>
<path fill-rule="evenodd" clip-rule="evenodd" d="M538.972 660.787L490.276 575.099L460.675 627.502L538.972 765.315V660.787Z" fill="#08FAB5"/>
<path fill-rule="evenodd" clip-rule="evenodd" d="M489.332 573.259L442.725 491.316H383.516L459.49 625.524L489.332 573.259Z" fill="#08FAB5"/>
<path fill-rule="evenodd" clip-rule="evenodd" d="M441.618 489.378L393.677 405.165L304.808 353.367L382.431 489.941L441.618 489.378Z" fill="#08FAB5"/>
<path fill-rule="evenodd" clip-rule="evenodd" d="M307.161 351.629L394.542 403.424L489.899 403.42L459.886 351.038L307.161 351.629Z" fill="#08FAB5"/>
<path fill-rule="evenodd" clip-rule="evenodd" d="M492.3 403.364L587.124 403.333L616.815 351.147H462.427L492.3 403.364Z" fill="#08FAB5"/>
<path fill-rule="evenodd" clip-rule="evenodd" d="M589.42 403.349L685.222 403.251L773.512 351.273H619.132L589.42 403.349Z" fill="#08FAB5"/>
<path fill-rule="evenodd" clip-rule="evenodd" d="M686.04 404.995L638.003 489.466L696.776 489.326L774.189 353.906L686.04 404.995Z" fill="#08FAB5"/>
<path fill-rule="evenodd" clip-rule="evenodd" d="M590.42 573.256L619.665 624.957L695.686 491.302L636.961 491.237L590.42 573.256Z" fill="#08FAB5"/>
<path fill-rule="evenodd" clip-rule="evenodd" d="M541.278 660.602L589.235 575.123L618.628 626.881L541.278 762.9V660.602Z" fill="#08FAB5"/>
<path fill-rule="evenodd" clip-rule="evenodd" d="M537.79 554.661L519.38 522.383L490.495 573.515L537.79 656.408V554.661Z" fill="#08FAB5"/>
<path fill-rule="evenodd" clip-rule="evenodd" d="M489.244 571.798L518.452 520.262L502.19 491.578L443.919 491.552L489.244 571.798Z" fill="#08FAB5"/>
<path fill-rule="evenodd" clip-rule="evenodd" d="M483.17 458.226L500.958 489.675L442.847 489.701L395.994 407.19L483.17 458.226Z" fill="#08FAB5"/>
<path fill-rule="evenodd" clip-rule="evenodd" d="M483.857 456.575L519.023 456.559L490.094 405.645L396.938 405.687L483.857 456.575Z" fill="#08FAB5"/>
<path fill-rule="evenodd" clip-rule="evenodd" d="M492.013 405.68L521.023 456.52H555.566L584.701 405.68H492.013Z" fill="#08FAB5"/>
<path fill-rule="evenodd" clip-rule="evenodd" d="M593.712 456.654L557.864 456.638L586.943 405.688L680.601 405.729L593.712 456.654Z" fill="#08FAB5"/>
<path fill-rule="evenodd" clip-rule="evenodd" d="M594.12 458.467L576.539 489.693L634.678 489.719L681.479 407.24L594.12 458.467Z" fill="#08FAB5"/>
<path fill-rule="evenodd" clip-rule="evenodd" d="M588.207 571.732L559.129 520.298L575.381 491.542L633.7 491.516L588.207 571.732Z" fill="#08FAB5"/>
<path fill-rule="evenodd" clip-rule="evenodd" d="M540.127 554.554L558.028 522.342L586.773 573.563L540.127 656.074V554.554Z" fill="#08FAB5"/>
</svg>
</svg>
