<svg width="1080" height="1080" viewBox="0 0 1080 1080" fill="none" xmlns="http://www.w3.org/2000/svg">
<path fill-rule="evenodd" clip-rule="evenodd" d="M543.609 639.667L490.537 546.456L468.444 585.304L543.609 717.477V639.667Z" fill="white" stroke="black"/>
<path fill-rule="evenodd" clip-rule="evenodd" d="M489.786 545.199L438.209 453.966H393.861L467.788 584.09L489.786 545.199Z" fill="white" stroke="black"/>
<path fill-rule="evenodd" clip-rule="evenodd" d="M384.525 360.512L436.994 452.791L393.091 452.811L319.18 322.035L384.525 360.512Z" fill="white" stroke="black"/>
<path fill-rule="evenodd" clip-rule="evenodd" d="M319.922 320.841L385.231 358.858H489.638L468.408 320.815L319.922 320.841Z" fill="white" stroke="black"/>
<path fill-rule="evenodd" clip-rule="evenodd" d="M469.854 320.81L491.695 358.618L596.337 358.912L618.433 320.801L469.854 320.81Z" fill="white" stroke="black"/>
<path fill-rule="evenodd" clip-rule="evenodd" d="M703.129 359.011L598.207 358.965L619.983 321.06L767.697 321.125L703.129 359.011Z" fill="white" stroke="black"/>
<path fill-rule="evenodd" clip-rule="evenodd" d="M702.54 360.827L650.501 452.677L695.338 452.697L769.614 321.531L702.54 360.827Z" fill="white" stroke="black"/>
<path fill-rule="evenodd" clip-rule="evenodd" d="M598.155 544.433L620.701 584.062L694.724 453.922L649.575 453.972L598.155 544.433Z" fill="white" stroke="black"/>
<path fill-rule="evenodd" clip-rule="evenodd" d="M544.819 639.162L597.407 545.611L619.959 585.522L544.819 717.812V639.162Z" fill="white" stroke="black"/>
<path fill-rule="evenodd" clip-rule="evenodd" d="M543.946 567.149L511.486 510.031L491.755 544.962L543.946 636.825V567.149Z" fill="white" stroke="black"/>
<path fill-rule="evenodd" clip-rule="evenodd" d="M510.857 508.805L479.79 454.184H440.322L490.965 543.644L510.857 508.805Z" fill="white" stroke="black"/>
<path fill-rule="evenodd" clip-rule="evenodd" d="M479.052 452.892L447.096 396.758L387.857 362.23L439.599 453.267L479.052 452.892Z" fill="white" stroke="black"/>
<path fill-rule="evenodd" clip-rule="evenodd" d="M389.427 361.072L447.673 395.597L511.235 395.595L491.23 360.678L389.427 361.072Z" fill="white" stroke="black"/>
<path fill-rule="evenodd" clip-rule="evenodd" d="M512.836 395.557L576.043 395.537L595.834 360.751H492.923L512.836 395.557Z" fill="white" stroke="black"/>
<path fill-rule="evenodd" clip-rule="evenodd" d="M577.573 395.548L641.433 395.482L700.284 360.835H597.379L577.573 395.548Z" fill="white" stroke="black"/>
<path fill-rule="evenodd" clip-rule="evenodd" d="M641.979 396.644L609.958 452.951L649.135 452.858L700.736 362.59L641.979 396.644Z" fill="white" stroke="black"/>
<path fill-rule="evenodd" clip-rule="evenodd" d="M578.24 508.803L597.734 543.266L648.408 454.174L609.263 454.131L578.24 508.803Z" fill="white" stroke="black"/>
<path fill-rule="evenodd" clip-rule="evenodd" d="M545.483 567.025L577.45 510.047L597.043 544.548L545.483 635.215V567.025Z" fill="white" stroke="black"/>
<path fill-rule="evenodd" clip-rule="evenodd" d="M543.157 496.408L530.886 474.893L511.632 508.976L543.157 564.23V496.408Z" fill="white" stroke="black"/>
<path fill-rule="evenodd" clip-rule="evenodd" d="M510.799 507.831L530.268 473.478L519.428 454.358L480.586 454.341L510.799 507.831Z" fill="white" stroke="black"/>
<path fill-rule="evenodd" clip-rule="evenodd" d="M506.749 432.127L518.606 453.09L479.871 453.107L448.64 398.108L506.749 432.127Z" fill="white" stroke="black"/>
<path fill-rule="evenodd" clip-rule="evenodd" d="M507.208 431.026L530.649 431.016L511.365 397.077L449.27 397.105L507.208 431.026Z" fill="white" stroke="black"/>
<path fill-rule="evenodd" clip-rule="evenodd" d="M512.645 397.101L531.982 430.989H555.007L574.428 397.101H512.645Z" fill="white" stroke="black"/>
<path fill-rule="evenodd" clip-rule="evenodd" d="M580.435 431.079L556.539 431.069L575.922 397.106L638.353 397.134L580.435 431.079Z" fill="white" stroke="black"/>
<path fill-rule="evenodd" clip-rule="evenodd" d="M580.705 432.287L568.987 453.102L607.741 453.119L638.937 398.141L580.705 432.287Z" fill="white" stroke="black"/>
<path fill-rule="evenodd" clip-rule="evenodd" d="M576.766 507.787L557.383 473.503L568.216 454.334L607.09 454.317L576.766 507.787Z" fill="white" stroke="black"/>
<path fill-rule="evenodd" clip-rule="evenodd" d="M544.716 496.337L556.648 474.865L575.81 509.007L544.716 564.007V496.337Z" fill="white" stroke="black"/>
<path d="M198 917V776.2H233.8V917H198ZM154.6 806V775.2H277.2V806H154.6ZM321.883 859.6V834H348.883C354.749 834 359.216 832.6 362.283 829.8C365.483 826.867 367.083 822.933 367.083 818C367.083 813.2 365.483 809.333 362.283 806.4C359.216 803.333 354.749 801.8 348.883 801.8H321.883V775.2H353.883C363.483 775.2 371.883 777 379.083 780.6C386.416 784.2 392.149 789.133 396.283 795.4C400.416 801.667 402.483 809 402.483 817.4C402.483 825.8 400.349 833.2 396.083 839.6C391.949 845.867 386.149 850.8 378.683 854.4C371.216 857.867 362.483 859.6 352.483 859.6H321.883ZM293.483 917V775.2H329.283V917H293.483ZM370.283 917L329.083 856.2L361.283 848.4L411.683 917H370.283ZM423.366 917V775.2H459.166V917H423.366ZM484.303 917V775.2H509.303L520.103 804.2V917H484.303ZM582.103 917L499.303 811.8L509.303 775.2L592.303 880.4L582.103 917ZM582.103 917L572.903 887.2V775.2H608.703V917H582.103ZM633.913 917V775.2H669.713V917H633.913ZM729.25 917V776.2H765.05V917H729.25ZM685.85 806V775.2H808.45V806H685.85ZM862.078 866.2L807.878 775.2H848.878L890.278 849H861.478L902.878 775.2H943.078L888.478 866.2H862.078ZM857.878 917V851.6H893.678V917H857.878Z" fill="white"/>
</svg>
